/* XPM */
static char * idle_back_xpm[] = {
"32 32 16 1",
" 	c #0E993C",
".	c #70DB00",
"+	c #00C62D",
"@	c #404040",
"#	c #5D5D5D",
"$	c #7D7D7D",
"%	c #A6A6A6",
"&	c #534721",
"*	c #323234",
"=	c #444444",
"-	c #9D704C",
";	c #D7906E",
">	c #545456",
",	c #6D6D6E",
"'	c #265358",
")	c #549E8E",
"   ....+    ... @     ++ .....  ",
"  .++.    @@@+.@@ @@@@+   .+++. ",
" .++.  ..@##$@@#@@$#@      .+++.",
" + ++  .++@@#$#$#$#@@@@ ++  + ++",
"   +   @@@#$%$$%$$%$$##@@+  +  +",
"      @##$$%$$%%$$$%$$$##@      ",
"  ...@#$$$%%$$$$$$$%%$#@@ +++   ",
"++++. @@#$$%$$$$$$$%$$$#@.++    ",
"  +. @@#$$$$%$%%%$%$$$$$#@++++  ",
"+++ @##$#$$$$$$%$$$$$$#$$@.+   +",
".  @##@#$$$$$$$$$$$$$$$#$$@    +",
"+.  @@@$$#$$#$$$$$$$#$$@@@@@ ++ ",
"+.  +@#$#@$$#$$#$#$$#@$$@@++  + ",
"++.  @##@@$##$$###$$#@#$#@ +    ",
"+ +  @#@#@#@#$@##@#$#@@##@      ",
"+ + +@@@##@#@#@###@#@##@@@  ..+ ",
"   ++@+&@####@#####@##@& @  .++ ",
" +  + + @#############@  +  ++  ",
"++       @#@###@###@#@  ++      ",
"   ++...*=@-@#@;@#@-@=* ++ +    ",
" ++ ++.*=*==>@>>>@>==*=*  ++  ++",
"   +.  *=**>>,,,,,>>**=* ++   .+",
"      *=*==>>>>>>>>>==*=*++   ..",
"++ ++ *=*=>>>,,,,,>>>=*=*   ++  ",
" + +  *===>>,,,,,,,>>===*    +  ",
"    +*====>>,,,,,,,>>====*    ++",
" ++ +*===>>,,,,,,,,,>>===*   +++",
"  +  +**=>>,,>>>>>,,>>=** +  ++ ",
"      ++***************.  ++    ",
"...    ++ +'))' '))'.++.. ++ +++",
"++.       ++''  .'' .++      ++ ",
" +.             + + + +   ++    "};
