/* XPM */
static char * idle_front_xpm[] = {
"32 32 38 1",
" 	c #0E993C",
".	c #70DB00",
"+	c #00C62D",
"@	c #404040",
"#	c #5D5D5D",
"$	c #7D7D7D",
"%	c #A6A6A6",
"&	c #EEBE93",
"*	c #464646",
"=	c #FFE1AF",
"-	c #D9D9D9",
";	c #232323",
">	c #D7906E",
",	c #534721",
"'	c #F2F2F2",
")	c #8C8C8C",
"!	c #FFFFFF",
"~	c #2D401C",
"{	c #9D704C",
"]	c #417517",
"^	c #323234",
"/	c #777575",
"(	c #444444",
"_	c #DBD8D7",
":	c #545456",
"<	c #453FB4",
"[	c #6D6D6E",
"}	c #B9B6B5",
"|	c #352A80",
"1	c #516CED",
"2	c #75A2FF",
"3	c #265358",
"4	c #6A8779",
"5	c #809D90",
"6	c #92B0A3",
"7	c #4B6757",
"8	c #3E7F68",
"9	c #549E8E",
"   ....+    ..@       ++ .....  ",
"  .++.   @@@@+@@  @@@ +   .+++. ",
" .++.  ...@#$@@#@@$##@     .+++.",
" + ++  .@@@@#$#$#$#@@+  ++  + ++",
"   +  @@##$$%$$%$$%$#@@@ +  +  +",
"     @##$$$%$$$%%$$%$$##@       ",
"  ....@@#$%%$$$$$$$%%$$$#@+++   ",
"++++. @#$$$%$$$$$$$%$$#@@.++    ",
"  +. @#$$$$$%$$%%$%$$$$#@@++++  ",
"+++  @$$##$$$#%%$#$$$#$$##@+   +",
".   @$$##$$$#@$$#@#$$$#@###@   +",
"+. @@@@@#$$#@@$#@&@#$$##@@@  ++ ",
"+.  +@@#$$#@&@#@&&&@#$$##@++  + ",
"++.  @##$#@***@==***@#$@#@ +    ",
"+ +  @#@#@&-;-===-;-&@#@#@      ",
"+ + +@@>,>&';)===);'&>,>@@  ..+ ",
"   ++@+,,>&!~~===~~!&>,, @  .++ ",
" +  + + ,{&=]]===]]=&{,  +  ++  ",
"++       ,>&=======&>,  ++      ",
"   ++...^^,{>&&&&&>{,^^ ++ +    ",
" ++ ++../((,,,,,,,,,((/+  ++  ++",
"   +.  /_!(::(((((::(!_/ ++   .+",
"      ,{!_<(:[[[[[:(<_!{,++   ..",
"++ ++ ,==}|1::[[[::1|}==,   ++  ",
" + +  ,=&,|<12<|<21<|,&=,    +  ",
"    ++^,,^34<<555<<43^,,^     ++",
" ++ + ^^^^34654445643^^^^+   +++",
"  +  +^^^^37657775673^^^^ +  ++ ",
"      +^+  388333883 ..^  ++    ",
"...    ++ +3993 3993.++.. ++ +++",
"++.       ++33  .33 .++      ++ ",
" +.             + + + +   ++    "};
