/* XPM */
static char * idle_left_xpm[] = {
"32 32 39 1",
" 	c #0E993C",
".	c #70DB00",
"+	c #00C62D",
"@	c #404040",
"#	c #5D5D5D",
"$	c #7D7D7D",
"%	c #A6A6A6",
"&	c #EEBE93",
"*	c #464646",
"=	c #534721",
"-	c #FFE1AF",
";	c #D9D9D9",
">	c #232323",
",	c #8C8C8C",
"'	c #F2F2F2",
")	c #9D704C",
"!	c #D7906E",
"~	c #2D401C",
"{	c #FFFFFF",
"]	c #417517",
"^	c #323234",
"/	c #444444",
"(	c #545456",
"_	c #6D6D6E",
":	c #B9B6B5",
"<	c #777575",
"[	c #DBD8D7",
"}	c #352A80",
"|	c #453FB4",
"1	c #516CED",
"2	c #75A2FF",
"3	c #4B6757",
"4	c #265358",
"5	c #809D90",
"6	c #92B0A3",
"7	c #6A8779",
"8	c #3E7F68",
"9	c #549E8E",
"0	c #416E5F",
"   ....+    ...@      ++ .....  ",
"  .++.    @@@@@#@ @@@ +   .+++. ",
" .++.  ... @$#@$#@$$#@     .+++.",
" + ++ @@@@@@@$#$@$$#@+  ++  + ++",
"   +   @#$$##$$$$$#@@@@@ +  +  +",
"       @@#$$%$$$$$%$$$##@       ",
"  ....@##$%%$$$$$$$%%$$$#@+++   ",
"++++.@#$$$$%%$$$$$%%$$#@@.++    ",
"  +.@#$$#$$$%$%%%$%$$$$#@+++++  ",
"+++@###@$$$#$$$$$$$$$#$$#@.+   +",
".   @@@#$$#@#$$$#$$$$#@$$#@    +",
"+.  ++@$$#@&@#$$$#@#$$@@###@ ++ ",
"+.  + @$#@&&&@#$$##@#$@#@@@+  + ",
"++.   @#@&&***@#$@=#@#@##@ +    ",
"+ +  ++@=&-;>;-@#@-=#@@##@      ",
"+ + +++ =&-,>'--@)-=##@@#@  ..+ ",
"   ++ + =!-~~{---)&=##@ @   .++ ",
" +  + + =)-]]---&!=#@#@  +  ++  ",
"++       =!----&!!##@@  ++      ",
"   ++...  =)!&&!!)#@^++ ++ +    ",
" ++ ++...  =======@//^++  ++  ++",
"   +.    +^///(((/((((^+ ++   .+",
"         +^/(___(({:/_/^ ++   ..",
"++ ++ ++  ^//(((<{{[<_(^    ++  ",
" + +   +   }|122<[{[<_(/^    +  ",
"    ++    +}3|11=--&=_(/^     ++",
" ++ +    ++ 4565=--!=((/^+   +++",
"  +  +++ ++ 47655===^((/^ +  ++ ",
"      +++  ++489804^^(/^  ++    ",
"...    ++ ++ 499804 .^^.. ++ +++",
"++.       ++  4444+ .++      ++ ",
" +.             + + + +   ++    "};
