/* XPM */
static char * collectable_xpm[] = {
"32 32 256 2",
"  	c #0E993C",
". 	c #70DB00",
"+ 	c #00C62D",
"@ 	c #1E8F38",
"# 	c #288232",
"$ 	c #11BF2B",
"% 	c #198836",
"& 	c #12AA28",
"* 	c #14AF2A",
"= 	c #16943A",
"- 	c #4A3615",
"; 	c #654618",
"> 	c #473A12",
", 	c #1B8634",
"' 	c #2F421E",
") 	c #688645",
"! 	c #384A25",
"~ 	c #474518",
"{ 	c #BC9154",
"] 	c #CC9F5D",
"^ 	c #7D5D29",
"/ 	c #362F17",
"( 	c #506830",
"_ 	c #85AB5A",
": 	c #7B9F55",
"< 	c #313F1E",
"[ 	c #1E8F3A",
"} 	c #3E3E1A",
"| 	c #5A3F18",
"1 	c #6E5320",
"2 	c #98702B",
"3 	c #354825",
"4 	c #97C067",
"5 	c #81A65A",
"6 	c #324325",
"7 	c #257932",
"8 	c #34942D",
"9 	c #520930",
"0 	c #671135",
"a 	c #6A1830",
"b 	c #49220E",
"c 	c #533C12",
"d 	c #2C3C21",
"e 	c #374828",
"f 	c #2A4224",
"g 	c #84232F",
"h 	c #4C0630",
"i 	c #327237",
"j 	c #317A37",
"k 	c #911133",
"l 	c #CD1B33",
"m 	c #BA253A",
"n 	c #77163A",
"o 	c #59182B",
"p 	c #564114",
"q 	c #4F280F",
"r 	c #92142C",
"s 	c #A41434",
"t 	c #8C1537",
"u 	c #4C0932",
"v 	c #2E7A38",
"w 	c #63AB1B",
"x 	c #510C2F",
"y 	c #7D1437",
"z 	c #EB2938",
"A 	c #F84948",
"B 	c #DB3741",
"C 	c #901438",
"D 	c #5A0B3C",
"E 	c #4C3E11",
"F 	c #5A2414",
"G 	c #A91634",
"H 	c #B91F39",
"I 	c #C81631",
"J 	c #761236",
"K 	c #4A1F2E",
"L 	c #04C42D",
"M 	c #547326",
"N 	c #691539",
"O 	c #D71231",
"P 	c #FACB91",
"Q 	c #FFB288",
"R 	c #FF6A60",
"S 	c #D23645",
"T 	c #7A0E39",
"U 	c #8A2E27",
"V 	c #931F2D",
"W 	c #D9464C",
"X 	c #F36F63",
"Y 	c #D73845",
"Z 	c #9B1436",
"` 	c #620E33",
" .	c #31902C",
"..	c #6FD703",
"+.	c #570E33",
"@.	c #81133D",
"#.	c #EE3846",
"$.	c #FEE5A3",
"%.	c #FFECA8",
"&.	c #FFAD85",
"*.	c #FF645D",
"=.	c #FC635D",
"-.	c #FB5858",
";.	c #FC635C",
">.	c #F99072",
",.	c #F3695F",
"'.	c #E7303E",
").	c #AE1636",
"!.	c #731339",
"~.	c #32872F",
"{.	c #01C62D",
"].	c #14963B",
"^.	c #821239",
"/.	c #E42A3A",
"(.	c #FA4E51",
"_.	c #FEAE84",
":.	c #FFEEA9",
"<.	c #FFBA8E",
"[.	c #FFBB90",
"}.	c #F78E74",
"|.	c #F89677",
"1.	c #F7594E",
"2.	c #EC1E31",
"3.	c #AD1635",
"4.	c #C01B31",
"5.	c #991534",
"6.	c #4D0936",
"7.	c #13963C",
"8.	c #7B1337",
"9.	c #D21C32",
"0.	c #F52C3A",
"a.	c #F74449",
"b.	c #FF7A68",
"c.	c #FFA380",
"d.	c #FFA381",
"e.	c #F87C69",
"f.	c #F74B48",
"g.	c #F01F31",
"h.	c #E61F32",
"i.	c #BD1B35",
"j.	c #C8243B",
"k.	c #A11B38",
"l.	c #560D37",
"m.	c #14963C",
"n.	c #4B062F",
"o.	c #731337",
"p.	c #A71636",
"q.	c #E21B32",
"r.	c #F21C31",
"s.	c #F93742",
"t.	c #FE454B",
"u.	c #FD4849",
"v.	c #F42234",
"w.	c #F21D31",
"x.	c #E81E32",
"y.	c #C71C35",
"z.	c #C21C35",
"A.	c #D43346",
"B.	c #931B38",
"C.	c #560D35",
"D.	c #307036",
"E.	c #671339",
"F.	c #851234",
"G.	c #BE1736",
"H.	c #DF1A32",
"I.	c #F11C30",
"J.	c #F11B2F",
"K.	c #EF1C2F",
"L.	c #F01F32",
"M.	c #E31C30",
"N.	c #C91B32",
"O.	c #CB2F3C",
"P.	c #DA4248",
"Q.	c #881B3A",
"R.	c #3A4F34",
"S.	c #2F7738",
"T.	c #4E0B33",
"U.	c #7F1336",
"V.	c #90163B",
"W.	c #C51735",
"X.	c #EC1C31",
"Y.	c #ED1C31",
"Z.	c #EE1E30",
"`.	c #EE1E31",
" +	c #DF1C30",
".+	c #C01931",
"++	c #CA2B3B",
"@+	c #DC4748",
"#+	c #D33A45",
"$+	c #77133A",
"%+	c #316F38",
"&+	c #461D33",
"*+	c #661137",
"=+	c #7D153A",
"-+	c #93163A",
";+	c #B71834",
">+	c #CF1C36",
",+	c #D41D34",
"'+	c #CC1A32",
")+	c #C0182F",
"!+	c #CE3442",
"~+	c #E1474E",
"{+	c #D23643",
"]+	c #A11738",
"^+	c #4B2434",
"/+	c #16B92E",
"(+	c #16B92D",
"_+	c #540D34",
":+	c #6F1239",
"<+	c #801439",
"[+	c #961638",
"}+	c #A31636",
"|+	c #AA1637",
"1+	c #BC1833",
"2+	c #C52D43",
"3+	c #C42B42",
"4+	c #D33945",
"5+	c #A81736",
"6+	c #5A0D35",
"7+	c #397031",
"8+	c #3A7131",
"9+	c #520C32",
"0+	c #6F1438",
"a+	c #741438",
"b+	c #84163C",
"c+	c #891437",
"d+	c #951439",
"e+	c #BB1D38",
"f+	c #BE1D37",
"g+	c #B51A36",
"h+	c #5E0C34",
"i+	c #3A5634",
"j+	c #10983C",
"k+	c #377931",
"l+	c #540B35",
"m+	c #6E1539",
"n+	c #731437",
"o+	c #821235",
"p+	c #841237",
"q+	c #7D123C",
"r+	c #78143B",
"s+	c #560E35",
"t+	c #36792F",
"u+	c #3C5135",
"v+	c #41392C",
"w+	c #610F36",
"x+	c #631139",
"y+	c #631138",
"z+	c #611338",
"A+	c #442C32",
"B+	c #3B5235",
"C+	c #1C8E3A",
"D+	c #258238",
"E+	c #268239",
"F+	c #278239",
"G+	c #1D8E3B",
"      . . . . +         . . .               + +   . . . . .     ",
"    . + + .             + + .               +       . + + + .   ",
"  . + + .     . . .       + .     . . . +             . + + + . ",
"  +   + +     . + +             . . + + + +     + +     +   + + ",
"      +       . +     +               . + +       +     +     + ",
"                      + +   + +                                 ",
"    . . . .       . +     @ # $   % & * +   + +     + + +       ",
"+ + + + .     +   . + + = - ; > , ' ) ! ,   +     . + +         ",
"    + .     + +   . . . ~ { ] ^ / ( _ : <       . + + + + +     ",
"+ + +     + +         [ } | 1 2 3 4 5 6 7     . . . . +       + ",
".                 + 8 9 0 a b c d e f g h i                   + ",
"+ .     + +       j 9 k l m n o p q r s t u v             + +   ",
"+ .     +     . w x y z A B C D E F G H I J K + +   + +     +   ",
"+ + .       . L M N O P Q R S T U V W X Y Z `  .+     +         ",
"+   +     + + ..+.@.#.$.%.&.*.=.-.;.>.,.'.).!.~.{.              ",
"+   +   + + + ].+.^./.(._.:.<.[.}.|.1.2.3.4.5.6.7.      . . +   ",
"      + +   + ].+.8.9.0.a.b.c.d.e.f.g.h.i.j.k.l.7.      . + +   ",
"  +     +   + m.n.o.p.q.r.s.t.u.v.w.x.y.z.A.B.C.7.+     + +     ",
"+ +             D.E.F.G.H.I.J.K.L.M.N.z.O.P.Q.R.L +             ",
"      + + . . . S.T.U.V.W.X.Y.Z.`. +.+++@+#+$+%++ +   +         ",
"  + +   + + . . . &+*+=+-+;+>+,+'+)+!+~+{+]+^+/+    + +     + + ",
"      + .         (+_+:+<+[+}+|+1+2+3+4+5+6+7++   + +       . + ",
"                  L 8+9+0+a+b+c+d+e+f+g+h+i+j+    + +       . . ",
"+ +   + +   + +     + k+l+m+n+o+p+q+r+s+t++             + +     ",
"  +   +       +         u+v+w+x+y+z+A+B++                 +     ",
"        + +         +     C+D+E+E+F+G+      + +             + + ",
"  + +   +         + +                 + +   +     +       + + + ",
"    +     + + +   + +   +   . . . .   +             +     + +   ",
"            + + +     + +     . + .       . . .     + +         ",
". . .         + +   + +         . + .   . + + . .   + +   + + + ",
"+ + .               + +         . + +   . + +             + +   ",
"  + .                           +   +   +   +       + +         "};
