/* XPM */
static char * exit_xpm[] = {
"32 32 249 2",
"  	c #0E993C",
". 	c #70DB00",
"+ 	c #00C62D",
"@ 	c #30443A",
"# 	c #44553C",
"$ 	c #507047",
"% 	c #517147",
"& 	c #475C3E",
"* 	c #33453A",
"= 	c #3F4E3A",
"- 	c #4F6D45",
"; 	c #43523C",
"> 	c #4D5D46",
", 	c #4C5C44",
"' 	c #4D5E46",
") 	c #46553E",
"! 	c #33463A",
"~ 	c #4A5B43",
"{ 	c #4B5C44",
"] 	c #45573D",
"^ 	c #44533D",
"/ 	c #45533D",
"( 	c #43513B",
"_ 	c #495942",
": 	c #3B4B3A",
"< 	c #46543E",
"[ 	c #4A5C43",
"} 	c #45563D",
"| 	c #4B5A44",
"1 	c #43513C",
"2 	c #4E6246",
"3 	c #506E47",
"4 	c #47563F",
"5 	c #495842",
"6 	c #32453A",
"7 	c #38503D",
"8 	c #38523E",
"9 	c #4F6647",
"0 	c #4F6A47",
"a 	c #4D5C46",
"b 	c #4E6A45",
"c 	c #506D47",
"d 	c #4F6646",
"e 	c #4F6747",
"f 	c #475A3F",
"g 	c #4C5B45",
"h 	c #4D6046",
"i 	c #506B47",
"j 	c #4B6043",
"k 	c #4B5B44",
"l 	c #485740",
"m 	c #495841",
"n 	c #4E6247",
"o 	c #495C42",
"p 	c #4C5C45",
"q 	c #485640",
"r 	c #485741",
"s 	c #44523C",
"t 	c #37483A",
"u 	c #394A3A",
"v 	c #38493A",
"w 	c #44533C",
"x 	c #2C3B3B",
"y 	c #36483A",
"z 	c #364739",
"A 	c #36473A",
"B 	c #37493A",
"C 	c #26372F",
"D 	c #25332B",
"E 	c #2F3D3A",
"F 	c #5BAF24",
"G 	c #324C39",
"H 	c #3D503C",
"I 	c #456142",
"J 	c #40513F",
"K 	c #3F553D",
"L 	c #455E43",
"M 	c #394B3E",
"N 	c #2B3D34",
"O 	c #2B3A2F",
"P 	c #26342B",
"Q 	c #243229",
"R 	c #1F271E",
"S 	c #1E241A",
"T 	c #2B3E34",
"U 	c #34463A",
"V 	c #425B3F",
"W 	c #445B42",
"X 	c #3D4D3C",
"Y 	c #435F40",
"Z 	c #435742",
"` 	c #304C3B",
" .	c #1B9F33",
"..	c #3EC527",
"+.	c #315039",
"@.	c #45583D",
"#.	c #506F47",
"$.	c #4A5943",
"%.	c #485F3F",
"&.	c #506C47",
"*.	c #3F5141",
"=.	c #2B3B30",
"-.	c #2B3626",
";.	c #222B1F",
">.	c #1E251B",
",.	c #4C6742",
"'.	c #4E6C44",
").	c #324E3C",
"!.	c #10A338",
"~.	c #04BE2F",
"{.	c #304F3A",
"].	c #4A5942",
"^.	c #3F5041",
"/.	c #2B3627",
"(.	c #4B6642",
"_.	c #45533E",
":.	c #4D6146",
"<.	c #324C3C",
"[.	c #13933C",
"}.	c #09BE2E",
"|.	c #0ABB30",
"1.	c #13963B",
"2.	c #304A3A",
"3.	c #129A3A",
"4.	c #304B3A",
"5.	c #0BB632",
"6.	c #304E3A",
"7.	c #119F39",
"8.	c #32513B",
"9.	c #02BE2F",
"0.	c #13923C",
"a.	c #34523B",
"b.	c #45C625",
"c.	c #0FA836",
"d.	c #304C3A",
"e.	c #35513B",
"f.	c #54BA28",
"g.	c #0EAB35",
"h.	c #304D3A",
"i.	c #0C903D",
"j.	c #30493A",
"k.	c #516E47",
"l.	c #516C47",
"m.	c #405141",
"n.	c #283224",
"o.	c #20281D",
"p.	c #324F3C",
"q.	c #0DAF34",
"r.	c #246B3A",
"s.	c #226533",
"t.	c #2F6A34",
"u.	c #386B3A",
"v.	c #394A3D",
"w.	c #384D3C",
"x.	c #3C533F",
"y.	c #34473C",
"z.	c #2C3F37",
"A.	c #2B392C",
"B.	c #222A1E",
"C.	c #2C4037",
"D.	c #31443A",
"E.	c #3A513D",
"F.	c #3B513F",
"G.	c #37483B",
"H.	c #3B533E",
"I.	c #3B4E3F",
"J.	c #2F483B",
"K.	c #248336",
"L.	c #2D7630",
"M.	c #57BF1C",
"N.	c #0CB32D",
"O.	c #10A42E",
"P.	c #316738",
"Q.	c #496744",
"R.	c #486743",
"S.	c #435B3F",
"T.	c #2B3B2F",
"U.	c #486744",
"V.	c #2D6737",
"W.	c #206732",
"X.	c #395039",
"Y.	c #2F3F3A",
"Z.	c #2C5D36",
"`.	c #45A126",
" +	c #58D31A",
".+	c #02C32D",
"++	c #19A630",
"@+	c #3D6E3C",
"#+	c #4F6347",
"$+	c #495B41",
"%+	c #283325",
"&+	c #252F22",
"*+	c #242E21",
"=+	c #4E6447",
"-+	c #3A703B",
";+	c #59B81F",
">+	c #62C714",
",+	c #367F2F",
"'+	c #2D4839",
")+	c #2F443A",
"!+	c #3B6336",
"~+	c #339D2A",
"{+	c #01C32D",
"]+	c #17A42F",
"^+	c #3C673D",
"/+	c #495641",
"(+	c #263023",
"_+	c #3A693B",
":+	c #15A72F",
"<+	c #2BC729",
"[+	c #66D60F",
"}+	c #33892B",
"|+	c #2C4939",
"1+	c #2C4C39",
"2+	c #218230",
"3+	c #04BE2D",
"4+	c #03BD31",
"5+	c #09AD37",
"6+	c #0BAD2D",
"7+	c #316634",
"8+	c #43523B",
"9+	c #364B3A",
"0+	c #283C2D",
"a+	c #263523",
"b+	c #263524",
"c+	c #42533B",
"d+	c #43533C",
"e+	c #2E6A33",
"f+	c #109736",
"g+	c #11BF30",
"h+	c #2E9B2B",
"i+	c #3B6236",
"j+	c #2E4739",
"k+	c #1C7D2F",
"l+	c #05BE2D",
"m+	c #03BC31",
"n+	c #129238",
"o+	c #1A7D2E",
"p+	c #1E742F",
"q+	c #21732F",
"r+	c #1F722F",
"s+	c #1D722E",
"t+	c #1C712D",
"u+	c #1E732E",
"v+	c #08AF2F",
"w+	c #5DD418",
"x+	c #30C429",
"y+	c #1E812F",
"z+	c #1E722F",
"      . . . . +         . . .               + +   . . . . .     ",
"  @ # $ % % % % % % % & * = - % % - = * & % % % % % % % $ # @   ",
"  @ ; > , , , , , , ' ) ! = ~ , , ~ = ! ) ' , , , , , , > ; @ . ",
"  @ ; { ] ^ ^ ^ / ( _ ) ! : = = = = : ! < [ } ^ ^ ^ / ( | ; @ + ",
"  @ 1 2 3 > > > > 4 5 ) ! 6 7 8 8 7 6 ! < 9 0 a > > > / | ; @ + ",
"  @ 1 2 3 a > > > 4 5 ) ! = b c c b = ! < 9 0 a > > > / | ; @   ",
"  @ 1 2 $ d d d e f 5 ) ! = g > > g = ! < 9 3 d d d d } | ; @   ",
"+ @ ; h 0 i i i i j k ) ! = l m m l = ! < n i i i i i o p ; @   ",
"  @ ( l q q q q q l r s ! t u v v u t ! w l q q q q q r l ( @   ",
"+ x t y z y A z t t t B @ C D D D D C @ B t t t A z y A z t E + ",
". F G H I J K L M N O P Q R S S S S R Q P O T U V W X Y Z `  .+ ",
"+ ..+.@.#.$.%.&.*.=.-.;.S >.>.>.>.>.>.S ;.-.=.v ,.e < '.2 ).!.  ",
"+ ~.{.@.3 ].%.i ^.=./.;.>.>.>.>.>.>.>.>.;./.=.v (.e _.'.:.<.[.  ",
"+ }.{.@.3 ].%.i ^.=./.;.>.>.>.>.>.>.>.>.;./.=.v (.e _.'.:.<.[.  ",
"+ }.{.@.3 ].%.i ^.=./.;.>.>.>.>.>.>.>.>.;./.=.v (.e _.'.:.<.[.  ",
"+ |.{.@.3 ].%.i ^.=./.;.>.>.>.>.>.>.>.>.;./.=.v (.e _.'.:.<.[.  ",
"  1.2.@.3 ].%.i ^.=./.;.>.>.>.>.>.>.>.>.;./.=.v (.e _.'.:.<.[.  ",
"  3.4.@.3 ].%.i ^.=./.;.>.>.>.>.>.>.>.>.;./.=.v (.e _.'.:.<.[.  ",
"+ 5.6.@.3 ].%.i ^.=./.;.>.>.>.>.>.>.>.>.;./.=.v (.e _.'.:.<.[.  ",
"  [.2.@.3 ].%.i ^.=./.;.>.>.>.>.>.>.>.>.;./.=.v (.e _.'.:.).7.  ",
"  [.2.@.3 ].%.i ^.=./.;.>.>.>.>.>.>.>.>.;./.=.v (.e _.'.:.8.9.+ ",
"  0.2.@.3 ].%.i ^.=./.;.>.>.>.>.>.>.>.>.;./.=.v (.e _.'.:.a.b.+ ",
"  c.d.@.3 ].%.i ^.=./.;.>.>.>.>.>.>.>.>.;./.=.v (.e _.'.:.e.f.. ",
"+ g.h.@.3 ].%.i ^.=./.;.>.>.>.>.>.>.>.>.;./.=.v (.e _.'.:.<.i.  ",
"  [.j.] k.$.%.l.m.=.-.n.o.>.>.>.>.>.>.o.n.-.=.v ,.e < '.2 p.q.  ",
"  r.s.t.u.v.w.x.y.z.A./.B.>.>.>.>.>.>.B./.A.C.D.E.F.G.H.I.J.K.+ ",
"  L.M.N.O.P.Q.R.S.U T./.B.>.>.>.>.>.>.B./.T.U S.R.R.U.V.W.X.Y.+ ",
"  Z.`. +.+++@+#+$+t O %+&+*+*+*+*+*+*+&+%+O t $+=+#+-+;+>+,+'+  ",
"  )+!+~++ {+]+^+/+t O n.(+(+(+(+(+(+(+(+n.O t l a _+:+<+[+}+|+  ",
". 1+2+3+4+5+6+7+8+9+0+a+b+b+b+b+b+b+b+b+a+0+9+c+d+e+f+g+h+i+j++ ",
"+ k+l++ m+n+o+p+q+r+s+t+t+t+t+t+t+t+t+t+t+s+r+q+q+u+v+w+x+y+z+  ",
"  + .                           +   +   +   +       + +         "};
