/* XPM */
static char * tree_xpm[] = {
"32 32 556 2",
"  	c #0E993C",
". 	c #70DB00",
"+ 	c #00C62D",
"@ 	c #0E983C",
"# 	c #0D963B",
"$ 	c #00C12C",
"% 	c #6DD503",
"& 	c #0D953B",
"* 	c #0E973B",
"= 	c #6FDA01",
"- 	c #6ED702",
"; 	c #189039",
"> 	c #218736",
", 	c #258234",
"' 	c #21A829",
") 	c #63B90E",
"! 	c #63BA0E",
"~ 	c #67C50A",
"{ 	c #0CBD2C",
"] 	c #0F973B",
"^ 	c #6ED602",
"/ 	c #09BA2B",
"( 	c #1EB22A",
"_ 	c #417F32",
": 	c #58702B",
"< 	c #636727",
"[ 	c #626828",
"} 	c #6E831A",
"| 	c #617B23",
"1 	c #519025",
"2 	c #34A729",
"3 	c #13B52B",
"4 	c #0F923A",
"5 	c #10963B",
"6 	c #6AC709",
"7 	c #399B27",
"8 	c #516F2B",
"9 	c #767127",
"0 	c #967D21",
"a 	c #A47A20",
"b 	c #A37A20",
"c 	c #A27A20",
"d 	c #92831E",
"e 	c #658023",
"f 	c #358A25",
"g 	c #177F34",
"h 	c #0F933A",
"i 	c #158C38",
"j 	c #4B7A2F",
"k 	c #787027",
"l 	c #8F7121",
"m 	c #A37C21",
"n 	c #B38820",
"o 	c #BC8C21",
"p 	c #BB8C20",
"q 	c #BA8B20",
"r 	c #AD8320",
"s 	c #8E6D21",
"t 	c #5F5C25",
"u 	c #2B722F",
"v 	c #0C9039",
"w 	c #6ED802",
"x 	c #188134",
"y 	c #516328",
"z 	c #816621",
"A 	c #997320",
"B 	c #A97F20",
"C 	c #B78920",
"D 	c #BE8E20",
"E 	c #BE8D20",
"F 	c #BD8D20",
"G 	c #AD821F",
"H 	c #9F771F",
"I 	c #8A6820",
"J 	c #645C24",
"K 	c #2D9026",
"L 	c #00BA2B",
"M 	c #0F963B",
"N 	c #177E33",
"O 	c #396722",
"P 	c #584422",
"Q 	c #6D4F22",
"R 	c #8A6621",
"S 	c #AF8321",
"T 	c #AF8221",
"U 	c #AB8021",
"V 	c #8F6B1F",
"W 	c #6E521F",
"X 	c #57411F",
"Y 	c #404923",
"Z 	c #1F8E26",
"` 	c #0E9039",
" .	c #11A428",
"..	c #2E6324",
"+.	c #443025",
"@.	c #533426",
"#.	c #654625",
"$.	c #765522",
"%.	c #7D5C21",
"&.	c #7C5C21",
"*.	c #7A5B20",
"=.	c #77591F",
"-.	c #5E461F",
";.	c #3C2D1E",
">.	c #28201E",
",.	c #213E23",
"'.	c #1A6E2F",
").	c #119039",
"!.	c #03C02C",
"~.	c #12A028",
"{.	c #304B27",
"].	c #493127",
"^.	c #543028",
"/.	c #553328",
"(.	c #523525",
"_.	c #4D3324",
":.	c #402E20",
"<.	c #392A1E",
"[.	c #30241E",
"}.	c #251C1F",
"|.	c #1F191E",
"1.	c #1D3D23",
"2.	c #186E2F",
"3.	c #6ACE06",
"4.	c #0F943B",
"5.	c #138937",
"6.	c #1A6A2E",
"7.	c #334226",
"8.	c #4C3227",
"9.	c #58332A",
"0.	c #57322A",
"a.	c #542F29",
"b.	c #522E29",
"c.	c #532E29",
"d.	c #512E28",
"e.	c #492A27",
"f.	c #2D1D21",
"g.	c #1E171E",
"h.	c #2D1E20",
"i.	c #312021",
"j.	c #2A1D20",
"k.	c #1F3D23",
"l.	c #196D2E",
"m.	c #128F39",
"n.	c #01C52D",
"o.	c #6FD901",
"p.	c #10933A",
"q.	c #128A37",
"r.	c #0EA829",
"s.	c #168D26",
"t.	c #1E4925",
"u.	c #3B3224",
"v.	c #563329",
"w.	c #5E362C",
"x.	c #5B342B",
"y.	c #59332A",
"z.	c #5A332A",
"A.	c #502F28",
"B.	c #352222",
"C.	c #281D1F",
"D.	c #3D2623",
"E.	c #402723",
"F.	c #322021",
"G.	c #213623",
"H.	c #1A622B",
"I.	c #148536",
"J.	c #0F953B",
"K.	c #04BE2C",
"L.	c #67CA07",
"M.	c #168134",
"N.	c #1D6B2E",
"O.	c #237424",
"P.	c #254525",
"Q.	c #23261F",
"R.	c #452D25",
"S.	c #653B2D",
"T.	c #693C2E",
"U.	c #502E28",
"V.	c #362322",
"W.	c #302020",
"X.	c #452A25",
"Y.	c #462A25",
"Z.	c #352221",
"`.	c #222920",
" +	c #1D4925",
".+	c #168C26",
"++	c #0BB02A",
"@+	c #00C52D",
"#+	c #10A729",
"$+	c #1B8F26",
"%+	c #4B8419",
"&+	c #344125",
"*+	c #3D2923",
"=+	c #352521",
"-+	c #271C1F",
";+	c #4B2E26",
">+	c #6F402F",
",+	c #704030",
"'+	c #61372C",
")+	c #58322A",
"!+	c #5B352A",
"~+	c #513028",
"{+	c #3C2523",
"]+	c #3F2624",
"^+	c #4D2D27",
"/+	c #4A2C26",
"(+	c #382322",
"_+	c #1F2C1F",
":+	c #1F5A21",
"<+	c #1C8C26",
"[+	c #188837",
"}+	c #11923A",
"|+	c #02C22C",
"1+	c #1B8A26",
"2+	c #304126",
"3+	c #433824",
"4+	c #523328",
"5+	c #533028",
"6+	c #422724",
"7+	c #2B1E20",
"8+	c #4C2E26",
"9+	c #59322A",
"0+	c #5D352B",
"a+	c #64392D",
"b+	c #663B2D",
"c+	c #573229",
"d+	c #4A2B26",
"e+	c #512F28",
"f+	c #422825",
"g+	c #2F2021",
"h+	c #2A2F20",
"i+	c #315924",
"j+	c #2A6A2F",
"k+	c #1D7C33",
"l+	c #188736",
"m+	c #12933A",
"n+	c #0F983C",
"o+	c #1C9427",
"p+	c #394D29",
"q+	c #553F29",
"r+	c #643B2C",
"s+	c #5A352A",
"t+	c #402724",
"u+	c #2F2020",
"v+	c #513027",
"w+	c #714230",
"x+	c #704130",
"y+	c #61382C",
"z+	c #754332",
"A+	c #5F372B",
"B+	c #60372C",
"C+	c #5A342A",
"D+	c #412724",
"E+	c #382422",
"F+	c #453127",
"G+	c #403E28",
"H+	c #344627",
"I+	c #2B632D",
"J+	c #62BA0E",
"K+	c #6CD204",
"L+	c #168A37",
"M+	c #276F30",
"N+	c #394B28",
"O+	c #423624",
"P+	c #3C2623",
"Q+	c #392322",
"R+	c #5C362B",
"S+	c #754431",
"T+	c #714130",
"U+	c #63382D",
"V+	c #734231",
"W+	c #784532",
"X+	c #724131",
"Y+	c #6D3F2F",
"Z+	c #63392D",
"`+	c #422824",
" @	c #513128",
".@	c #4E3428",
"+@	c #454128",
"@@	c #51891A",
"#@	c #18A729",
"$@	c #05BE2C",
"%@	c #10953B",
"&@	c #0FB22A",
"*@	c #1F6F30",
"=@	c #254826",
"-@	c #252B1F",
";@	c #291F1F",
">@	c #3F2724",
",@	c #62392C",
"'@	c #764432",
")@	c #62382D",
"!@	c #62382C",
"~@	c #774532",
"{@	c #724231",
"]@	c #6E3F2F",
"^@	c #4A2C27",
"/@	c #372222",
"(@	c #4E2E27",
"_@	c #543129",
":@	c #503328",
"<@	c #434F26",
"[@	c #2D7D26",
"}@	c #198235",
"|@	c #0E943A",
"1@	c #03C12C",
"2@	c #196F2F",
"3@	c #244726",
"4@	c #382A23",
"5@	c #573329",
"6@	c #683C2E",
"7@	c #6B3E2F",
"8@	c #533129",
"9@	c #3E2624",
"0@	c #352522",
"a@	c #3D2A23",
"b@	c #442C25",
"c@	c #3C2D24",
"d@	c #2C4B27",
"e@	c #1A7832",
"f@	c #10923A",
"g@	c #118E39",
"h@	c #1C9728",
"i@	c #376325",
"j@	c #573D29",
"k@	c #794532",
"l@	c #5F362C",
"m@	c #794633",
"n@	c #6F4030",
"o@	c #6C3E2F",
"p@	c #714131",
"q@	c #7B4733",
"r@	c #314022",
"s@	c #266523",
"t@	c #2A5D2B",
"u@	c #297A25",
"v@	c #275E2C",
"w@	c #20682E",
"x@	c #05BC2C",
"y@	c #1AA429",
"z@	c #37602D",
"A@	c #555129",
"B@	c #704330",
"C@	c #7E4934",
"D@	c #7A4733",
"E@	c #563129",
"F@	c #63392C",
"G@	c #814C36",
"H@	c #5C352B",
"I@	c #6B3D2F",
"J@	c #7A4633",
"K@	c #744331",
"L@	c #5C3B2B",
"M@	c #3E4127",
"N@	c #22642D",
"O@	c #11A228",
"P@	c #0DAC29",
"Q@	c #148636",
"R@	c #06BB2B",
"S@	c #01C32D",
"T@	c #129039",
"U@	c #207E34",
"V@	c #38622E",
"W@	c #55542A",
"X@	c #704630",
"Y@	c #7C4833",
"Z@	c #5B342A",
"`@	c #4C2C27",
" #	c #673B2E",
".#	c #864E37",
"+#	c #6F3F30",
"@#	c #7D4834",
"##	c #714431",
"$#	c #58432C",
"%#	c #397527",
"&#	c #1BA028",
"*#	c #108F39",
"=#	c #0E953B",
"-#	c #1A8235",
";#	c #32662E",
">#	c #4F4B2C",
",#	c #6B412F",
"'#	c #7C4734",
")#	c #7B4734",
"!#	c #6A3E2E",
"~#	c #543128",
"{#	c #442825",
"]#	c #523028",
"^#	c #844C36",
"/#	c #563229",
"(#	c #472A26",
"_#	c #7B4834",
":#	c #7D4934",
"<#	c #6F4330",
"[#	c #545129",
"}#	c #387A28",
"|#	c #247F34",
"1#	c #15913A",
"2#	c #18A429",
"3#	c #348728",
"4#	c #515A30",
"5#	c #67562F",
"6#	c #704930",
"7#	c #65402E",
"8#	c #4D3927",
"9#	c #372C22",
"0#	c #29201F",
"a#	c #322121",
"b#	c #874E37",
"c#	c #814B35",
"d#	c #714231",
"e#	c #3B2423",
"f#	c #302021",
"g#	c #6A3D2E",
"h#	c #764532",
"i#	c #734331",
"j#	c #633B2D",
"k#	c #54432B",
"l#	c #46622F",
"m#	c #29A42A",
"n#	c #0DBB2C",
"o#	c #158F39",
"p#	c #20AF2B",
"q#	c #377B35",
"r#	c #437D2A",
"s#	c #47532C",
"t#	c #3D512B",
"u#	c #2E4D28",
"v#	c #215722",
"w#	c #1E3021",
"x#	c #362721",
"y#	c #60382B",
"z#	c #824C36",
"A#	c #60382C",
"B#	c #4F2E27",
"C#	c #3B2422",
"D#	c #2A1F1F",
"E#	c #211E1E",
"F#	c #271F1F",
"G#	c #2E2420",
"H#	c #392722",
"I#	c #663C2D",
"J#	c #62482E",
"K#	c #4A6330",
"L#	c #28A42A",
"M#	c #14913A",
"N#	c #129139",
"O#	c #168536",
"P#	c #13A329",
"Q#	c #12A329",
"R#	c #17702F",
"S#	c #264E27",
"T#	c #463426",
"U#	c #673C2D",
"V#	c #784633",
"W#	c #744332",
"X#	c #3B2622",
"Y#	c #2A2220",
"Z#	c #213121",
"`#	c #1F3822",
" $	c #1F3922",
".$	c #1F3A22",
"+$	c #243823",
"@$	c #2F3C21",
"#$	c #3A2D22",
"$$	c #503027",
"%$	c #60392B",
"&$	c #693E2E",
"*$	c #604C2F",
"=$	c #426931",
"-$	c #1AAC2A",
";$	c #02C32D",
">$	c #118636",
",$	c #325E2C",
"'$	c #59482A",
")$	c #6E4030",
"!$	c #4E2F27",
"~$	c #3C2A24",
"{$	c #292B21",
"]$	c #213922",
"^$	c #1B5D2A",
"/$	c #196D2F",
"($	c #159226",
"_$	c #149326",
":$	c #1A6C2E",
"<$	c #1C7223",
"[$	c #233A23",
"}$	c #2B2B21",
"|$	c #3B3822",
"1$	c #473526",
"2$	c #573D2B",
"3$	c #5D5230",
"4$	c #428D2B",
"5$	c #1CB02B",
"6$	c #04B02A",
"7$	c #39612D",
"8$	c #624E2D",
"9$	c #653A2D",
"0$	c #4E2D27",
"a$	c #3B2F24",
"b$	c #3B5D1D",
"c$	c #478418",
"d$	c #4E9615",
"e$	c #60BB0D",
"f$	c #118F39",
"g$	c #05BD2C",
"h$	c #128E38",
"i$	c #167E34",
"j$	c #1A692D",
"k$	c #1D612B",
"l$	c #23622C",
"m$	c #267F26",
"n$	c #39652F",
"o$	c #407334",
"p$	c #2CAE2C",
"q$	c #10C02D",
"r$	c #05B02A",
"s$	c #367B27",
"t$	c #5F422D",
"u$	c #693D2E",
"v$	c #583429",
"w$	c #3A3523",
"x$	c #284626",
"y$	c #1C6A2E",
"z$	c #62BF0B",
"A$	c #09B52B",
"B$	c #6CD403",
"C$	c #6FD801",
"D$	c #6BD204",
"E$	c #138B37",
"F$	c #0DB42B",
"G$	c #18B42B",
"H$	c #228F39",
"I$	c #1A953B",
"J$	c #11983C",
"K$	c #06B42A",
"L$	c #2C8727",
"M$	c #4C512C",
"N$	c #525A2A",
"O$	c #425826",
"P$	c #274F27",
"Q$	c #1B6B2E",
"R$	c #148837",
"S$	c #01C42D",
"T$	c #03C42D",
"U$	c #02C52D",
"V$	c #1F8235",
"W$	c #327833",
"X$	c #32972A",
"Y$	c #259728",
"Z$	c #187A32",
"`$	c #138736",
" %	c #13943A",
".%	c #18923A",
"+%	c #19913A",
"@%	c #149139",
"      . . . . +         . . .               + +   . . . . .     ",
"    . + + .         @ # $ $ % & & & & * @   +       . + + + .   ",
"  . + + .     . = - ; > , ' ) , , ) ! ~ { ] @         . + + + . ",
"  +   + +     ^ / ( _ : < [ [ [ } } | 1 2 3 4 ] + +     +   + + ",
"      +     5 6 7 8 9 0 a b b b b b c d e f g h   +     +     + ",
"          @ i j k l m n o o o o o p q r s t u v                 ",
"    . . . w x y z A B C D E E E F p G H I J K L     + + +       ",
"+ + + + . M N O P Q R a S S S S T U V W X Y Z `   . + +         ",
"    + .   ]  ...+.@.#.$.%.&.&.&.*.=.-.;.>.,.'.).. + + + + +     ",
"+ + +     !.~.{.].^./.@.(.(.(._.:.<.[.}.|.1.2.3.. . . +       + ",
".   @ ] 4.5.6.7.8.9.0.a.b.c.d.e.f.g.h.i.j.k.l.m.              + ",
"n.o.p.q.r.s.t.u.v.w.x.y.z.z.9.A.B.C.D.E.F.G.H.I.J.        + +   ",
"K.L.M.N.O.P.Q.R.S.T.w.9.y.y.9.U.V.W.X.Y.Z.`. +.+++J.@++     +   ",
"#+$+%+&+*+=+-+;+>+,+'+)+z.!+!+~+{+]+^+/+(+}._+:+<+[+}+|+@       ",
"1+2+3+4+5+6+7+8+>+,+'+9+0+a+b+c+d+d.0.e+f+g+}.h+i+j+k+l+m+n+    ",
"o+p+q+r+s+t+u+v+w+x+'+9+y+,+z+A+y.B+A+C+e+D+F.E+F+G+H+I+J+K+n.  ",
"L+M+N+O+P+g+Q+R+S+T+B+9+U+V+W+y+B+X+Y+Z+0+5+`+{+/+ @.@+@@@#@$@@ ",
"%@&@*@=@-@;@>@,@'@x+B+9+U+V+W+)@!@~@{@Y+]@Z+^@/@]+(@_@:@<@[@}@|@",
"+ 1@5.2@3@4@5@Y+{@6@0+y.)@V+W+)@)@W+V+{@'@7@8@9@0@a@b@b@c@d@e@f@",
"  * g@h@i@j@x+k@]@B+C+l@7@m@m@)@l@n@o@p@q@'@Z+;+r@s@t@u@v@w@M.p.",
"@ x@y@z@A@B@C@D@6@)+E@F@'@G@m@y+H@U+!@I@J@C@K@L@M@N@O@P@Q@5.R@S@",
"T@U@V@W@X@C@Y@Y+Z@`@A. #C@.#J@'+z.9.c+l@+#@#C@##$#%#&#*#=#* o.+ ",
"-#;#>#,#'#)#!#~#{#D.]#x+^#.#m@B+/#^+(#^+H@n@_#:#<#[#}#|#1#@ . . ",
"2#3#4#5#6#7#8#9#0#a#s+D@b#c#d#!+^+e#f#(+Y.5@g#h#i#j#k#l#m#n#*   ",
"o#p#q#r#s#t#u#v#w#x#y#:#z#K@A#B#C#D#E#F#G#H#8+R+B+A+I#J#K#L#M#@ ",
"  n+N#O#P#Q#N R#S#T#U#V#W#y+(@X#Y#Z#`# $.$+$@$#$`+$$%$&$*$=$-$$ ",
"  + n.] ;$M M >$,$'$)$n@y+!$~${$]$^$/$($_$:$<$[$}$|$1$2$3$4$5$$ ",
"    +     + @+6$7$8$w+9$0$a$b$c$d$e$f$g$f@h$i$j$k$l$m$n$o$p$q$@ ",
"            + r$s$t$u$v$w$x$y$z$A$B$n+@   C$D$L.E$E$F$G$H$I$J$  ",
". . .         K$L$M$N$O$P$Q$R$J.o.@+.   . + @+o.o.* S$T$J$U$+ + ",
"+ + .         f@V$W$X$Y$Z$`$M   . + +   . + +             + +   ",
"  + .         ]  %.%+%@%f@M     +   +   +   +       + +         "};
